<?xml version="1.0" standalone="no"?>
<!DOCTYPE svg PUBLIC "-//W3C//DTD SVG 20010904//EN"
 "http://www.w3.org/TR/2001/REC-SVG-20010904/DTD/svg10.dtd">
<svg version="1.0" xmlns="http://www.w3.org/2000/svg"
 width="218.000000pt" height="174.000000pt" viewBox="0 0 218.000000 174.000000"
 preserveAspectRatio="xMidYMid meet">
<metadata>
Created by potrace 1.10, written by Peter Selinger 2001-2011
</metadata>
<g transform="translate(0.000000,174.000000) scale(0.100000,-0.100000)"
fill="#ffffff" stroke="none">
<path d="M193 1555 c-63 -27 -92 -119 -58 -185 8 -15 30 -38 48 -49 34 -21 39
-21 886 -21 940 0 889 -4 930 63 40 65 16 158 -49 192 -42 22 -1708 22 -1757
0z"/>
<path d="M1019 1020 c-809 -5 -827 -5 -849 -25 -71 -64 -63 -170 17 -222 26
-17 75 -18 883 -18 808 0 857 1 883 18 60 39 83 117 53 175 -24 46 -54 66
-109 72 -29 3 -424 3 -878 0z"/>
<path d="M193 465 c-63 -27 -92 -119 -58 -185 8 -15 30 -38 48 -49 34 -21 39
-21 886 -21 940 0 889 -4 930 63 40 65 16 158 -49 192 -42 22 -1708 22 -1757
0z"/>
</g>
</svg>
